<svg xmlns="http://www.w3.org/2000/svg" width="48" height="48" viewBox="0 0 48 48">
	<g fill="none">
		<path fill="#d9d9d9" d="M34.586 27A11 11 0 0 0 35 24c0-6.075-4.925-11-11-11s-11 4.925-11 11a11 11 0 0 0 .414 3z" />
		<path fill="url(#fluentColorWeatherSunnyLow480)" d="M34.586 27A11 11 0 0 0 35 24c0-6.075-4.925-11-11-11s-11 4.925-11 11a11 11 0 0 0 .414 3z" />
		<path fill="#c55d5d" d="M4 27.5A1.5 1.5 0 0 1 5.5 26h37a1.5 1.5 0 0 1 0 3h-37A1.5 1.5 0 0 1 4 27.5" />
		<path fill="url(#fluentColorWeatherSunnyLow481)" d="M4 27.5A1.5 1.5 0 0 1 5.5 26h37a1.5 1.5 0 0 1 0 3h-37A1.5 1.5 0 0 1 4 27.5" />
		<path fill="#c55d5d" d="M12 33.5a1.5 1.5 0 0 1 1.5-1.5h21a1.5 1.5 0 0 1 0 3h-21a1.5 1.5 0 0 1-1.5-1.5" />
		<path fill="url(#fluentColorWeatherSunnyLow482)" d="M12 33.5a1.5 1.5 0 0 1 1.5-1.5h21a1.5 1.5 0 0 1 0 3h-21a1.5 1.5 0 0 1-1.5-1.5" />
		<path fill="#c55d5d" d="M20 39.5a1.5 1.5 0 0 1 1.5-1.5h5a1.5 1.5 0 0 1 0 3h-5a1.5 1.5 0 0 1-1.5-1.5" />
		<path fill="url(#fluentColorWeatherSunnyLow483)" d="M20 39.5a1.5 1.5 0 0 1 1.5-1.5h5a1.5 1.5 0 0 1 0 3h-5a1.5 1.5 0 0 1-1.5-1.5" />
		<path fill="#c55d5d" d="M24 4a1.5 1.5 0 0 1 1.5 1.5V9a1.5 1.5 0 0 1-3 0V5.5A1.5 1.5 0 0 1 24 4" />
		<path fill="url(#fluentColorWeatherSunnyLow484)" d="M24 4a1.5 1.5 0 0 1 1.5 1.5V9a1.5 1.5 0 0 1-3 0V5.5A1.5 1.5 0 0 1 24 4" />
		<path fill="#c55d5d" d="M9.44 9.44a1.5 1.5 0 0 1 2.12 0l2.5 2.5a1.5 1.5 0 0 1-2.12 2.12l-2.5-2.5a1.5 1.5 0 0 1 0-2.12" />
		<path fill="url(#fluentColorWeatherSunnyLow485)" d="M9.44 9.44a1.5 1.5 0 0 1 2.12 0l2.5 2.5a1.5 1.5 0 0 1-2.12 2.12l-2.5-2.5a1.5 1.5 0 0 1 0-2.12" />
		<path fill="#c55d5d" d="M36.44 9.44a1.5 1.5 0 0 1 2.12 2.12l-2.5 2.5a1.5 1.5 0 0 1-2.12-2.12z" />
		<path fill="url(#fluentColorWeatherSunnyLow486)" d="M36.44 9.44a1.5 1.5 0 0 1 2.12 2.12l-2.5 2.5a1.5 1.5 0 0 1-2.12-2.12z" />
		<defs>
			<linearGradient id="fluentColorWeatherSunnyLow480" x1="20.62" x2="28.127" y1="12.233" y2="28.503" gradientUnits="userSpaceOnUse">
				<stop stop-color="#ffe580" />
				<stop offset=".273" stop-color="#ffbf70" />
				<stop offset=".57" stop-color="#ffa342" />
				<stop offset=".96" stop-color="#fa6673" />
			</linearGradient>
			<linearGradient id="fluentColorWeatherSunnyLow481" x1="1.062" x2="44" y1="26" y2="26" gradientUnits="userSpaceOnUse">
				<stop offset=".061" stop-color="#0fafff" />
				<stop offset="1" stop-color="#0094f0" />
			</linearGradient>
			<linearGradient id="fluentColorWeatherSunnyLow482" x1="1.062" x2="44" y1="26" y2="26" gradientUnits="userSpaceOnUse">
				<stop offset=".061" stop-color="#0fafff" />
				<stop offset="1" stop-color="#0094f0" />
			</linearGradient>
			<linearGradient id="fluentColorWeatherSunnyLow483" x1="1.062" x2="44" y1="26" y2="26" gradientUnits="userSpaceOnUse">
				<stop offset=".061" stop-color="#0fafff" />
				<stop offset="1" stop-color="#0094f0" />
			</linearGradient>
			<linearGradient id="fluentColorWeatherSunnyLow484" x1="19.391" x2="25.326" y1="3.425" y2="25.305" gradientUnits="userSpaceOnUse">
				<stop stop-color="#ffe580" />
				<stop offset=".273" stop-color="#ffbf70" />
				<stop offset=".57" stop-color="#ffa342" />
				<stop offset=".815" stop-color="#fa6673" />
			</linearGradient>
			<linearGradient id="fluentColorWeatherSunnyLow485" x1="19.391" x2="25.326" y1="3.425" y2="25.305" gradientUnits="userSpaceOnUse">
				<stop stop-color="#ffe580" />
				<stop offset=".273" stop-color="#ffbf70" />
				<stop offset=".57" stop-color="#ffa342" />
				<stop offset=".815" stop-color="#fa6673" />
			</linearGradient>
			<linearGradient id="fluentColorWeatherSunnyLow486" x1="19.391" x2="25.326" y1="3.425" y2="25.305" gradientUnits="userSpaceOnUse">
				<stop stop-color="#ffe580" />
				<stop offset=".273" stop-color="#ffbf70" />
				<stop offset=".57" stop-color="#ffa342" />
				<stop offset=".815" stop-color="#fa6673" />
			</linearGradient>
		</defs>
	</g>
</svg>