<svg xmlns="http://www.w3.org/2000/svg" width="98" height="16" viewBox="0 0 98 16" fill="none">
<path d="M96.4675 12.1287L95.941 12.5979C95.4789 13.0089 94.9934 13.3256 94.4974 13.5398C94.0189 13.7459 93.4316 13.8507 92.7519 13.8507C92.1366 13.8507 91.575 13.7098 91.0357 13.421C90.5034 13.1369 90.0857 12.7388 89.757 12.2055C89.4786 11.7526 89.323 11.2577 89.2832 10.6965C89.7781 10.8479 90.2507 10.976 90.6953 11.0796C91.4136 11.2461 92.1611 11.3299 92.9157 11.3299C93.6422 11.3299 94.343 11.2112 94.9958 10.976C95.6813 10.7303 96.2487 10.3624 96.6816 9.88269C97.153 9.36108 97.3917 8.7242 97.3917 7.99185C97.3917 7.29792 97.1846 6.6622 96.7752 6.10217C96.3809 5.56193 95.8334 5.13695 95.1479 4.84005C94.488 4.5548 93.758 4.40926 92.9765 4.40926C92.0395 4.40926 91.1281 4.64445 90.2659 5.10784C89.3979 5.57473 88.6749 6.26866 88.1192 7.16984C87.56 8.07568 87.2769 9.16547 87.2769 10.4066C87.2769 11.5197 87.5494 12.5012 88.0876 13.3232C88.6211 14.1383 89.3277 14.7635 90.1887 15.1803C91.031 15.5878 91.9342 15.7951 92.8748 15.7951C93.7545 15.7951 94.5536 15.6356 95.2496 15.32C95.9176 15.0173 96.5693 14.5888 97.187 14.0474L97.6549 13.6364L96.4675 12.1287ZM89.5347 8.82084C89.6751 8.42031 89.8752 8.06171 90.1314 7.752C90.5081 7.29559 90.9526 6.94629 91.4522 6.7111C91.9529 6.47708 92.4653 6.35832 92.9754 6.35832C93.7381 6.35832 94.3535 6.52714 94.8062 6.85897C95.2075 7.15354 95.3947 7.51448 95.3947 7.99418C95.3947 8.27012 95.3245 8.62523 94.7805 8.93494C94.2529 9.23417 93.6247 9.38669 92.9157 9.38669C91.8921 9.38437 90.7573 9.19575 89.5347 8.82084Z" fill="#4A5FF7"/>
<path d="M82.5962 9.07235L81.2345 8.76614C80.4004 8.56937 79.9827 8.13275 79.9827 7.54245C79.9827 6.73325 80.7513 6.23143 81.7832 6.25355C82.4196 6.25355 83.0572 6.45032 83.6714 6.75654C84.44 7.10583 85.0764 7.60881 85.3408 7.84983V5.48744C84.9454 5.20334 83.5181 4.24162 81.6732 4.24162C79.1263 4.24162 77.5891 5.90309 77.5891 7.73805C77.5891 9.46473 78.8409 10.317 80.4881 10.7105L81.8054 11.0168C82.9694 11.2787 83.5403 11.6944 83.5403 12.4815C83.5403 13.2685 82.8595 14.0114 81.6077 14.0114C80.8168 14.0114 80.026 13.7494 79.3896 13.3989C78.621 13.0054 78.05 12.5245 77.8968 12.372L77.8523 14.7763C78.0056 14.9289 79.3241 16 81.6732 16C84.2867 16 85.9117 14.2081 85.9117 12.372C85.9129 10.7769 84.7921 9.55322 82.5962 9.07235Z" fill="#4A5FF7"/>
<path d="M70.551 4.46047H70.4153V15.738H72.7211V6.43398H76.6473V4.44533H70.551V4.46047Z" fill="#4A5FF7"/>
<path d="M63.8477 4.35104C60.7299 4.35104 58.3796 6.92999 58.3796 10.1202C58.3796 13.3116 60.9265 15.8894 64.3741 15.8894C67.0099 15.8894 68.4582 14.6436 68.4582 14.6436V12.3487C68.4582 12.3487 66.8555 13.7692 64.5496 13.7692C62.4637 13.7692 61.102 12.6107 60.751 10.9934H69.0736C69.0958 10.7093 69.118 10.4031 69.118 10.119C69.118 6.92999 66.8777 4.35104 63.8477 4.35104ZM60.7288 9.24697C61.0142 7.62974 62.1127 6.44913 63.8465 6.44913C65.5592 6.44913 66.5911 7.62974 66.8555 9.24697H60.7288Z" fill="#4A5FF7"/>
<path d="M55.9206 4.4826L52.6929 12.7655L49.4429 4.4826H46.9827L51.5066 15.7601H53.8569L58.3797 4.4826H55.9206Z" fill="#4A5FF7"/>
<path d="M45.8854 4.4826H43.5796V15.7601H45.8854V4.4826Z" fill="#4A5FF7"/>
<path d="M43.9047 0L43.0764 1.42628L43.9047 2.85373H45.5589L46.3872 1.42628L45.5589 0H43.9047Z" fill="#4A5FF7"/>
<path d="M39.3351 1.27025H37.0515V4.46047H34.1443V6.44911H37.0515V15.738H39.3351V6.44911H42.2563V4.46047H39.3351V1.27025Z" fill="#4A5FF7"/>
<path d="M33.0725 0.0244331H30.7666V15.7601H33.0725V0.0244331Z" fill="#4A5FF7"/>
<path d="M26.0963 10.7256C26.0963 12.5769 25.0762 13.7051 23.5577 13.7051C21.997 13.7051 20.9746 12.5769 20.9746 10.7256V4.46976H18.6184V10.6837C18.6184 13.8541 20.4142 15.9184 23.4723 15.9184C26.5081 15.9184 28.4326 13.8122 28.4326 10.6837V4.46976H26.0963V10.7256Z" fill="#4A5FF7"/>
<path d="M14.3767 4.4826H14.0164V4.48493L14.0129 4.4826L9.46438 11.9389C9.46087 10.7 9.44215 4.4826 9.44215 4.4826H7.19363H6.83331V4.48493L6.8298 4.4826L2.29883 11.9121L2.28479 11.4766L2.30702 4.4826H0V15.7601H2.30585C2.4474 15.5191 2.80071 14.9311 3.25462 14.1755L7.18076 7.73802V15.7601H9.46438C9.46555 15.759 9.46555 15.7578 9.46672 15.7566L9.4714 15.7601L14.3393 7.77877V15.7601H16.6229V4.4826H14.3767Z" fill="#4A5FF7"/>
</svg> 