<svg xmlns="http://www.w3.org/2000/svg" xmlns:v="https://vecta.io/nano" width="1280" height="997.862" viewBox="0 0 338.667 264.018"><g transform="translate(-366.124 -495.668)"><path clip-path="none" d="M50.009 66.692L36.33 56.749 13.512 73.325l27.784 20.189zm18.209 13.225L45.401 96.5l22.817 16.574L91.022 96.5zm-47.672-34.64h36.381l-83.651-60.783L-7.197 25.13zm38.177-5.401l6.959-21.398-116.873-84.919 19.525 40.644zM-6.056-40.342l-28.566-59.439-13.78 28.674zm106.148 97.091l-13.674 9.943 8.72 26.822 27.774-20.189zm-20.59-11.472h36.38l27.743-20.147 19.519-40.636zM187.62-66.441L70.751 18.478 77.7 39.876l90.39-65.673zm-2.791-4.666L171.05-99.781l-28.574 59.439z" fill="#00529b" transform="matrix(.940743 0 0 .940743 471.34614 589.53619)"/><path fill="#00529b" d="M523.597 646.684c0-6.582 5.34-11.926 11.93-11.926a11.94 11.94 0 0 1 11.926 11.926c0 6.59-5.35 11.929-11.926 11.929a11.93 11.93 0 0 1-11.93-11.929zm-157.473 87.969h8.629v13.731c0 1.508.137 2.604.685 3.528 1.096 1.882 3.287 2.397 5.034 2.397 2.26 0 3.561-.787 4.143-1.336 1.471-1.369 1.507-3.561 1.507-4.725v-13.594h8.629v12.669c0 2.842-.067 5.821-1.403 7.877-2.637 4.108-9.006 4.485-12.841 4.485-5.376 0-8.423-.754-10.238-1.847-3.767-1.851-4.143-5.686-4.143-7.638v-15.548zm30.933 17.875h7.876v6.3h-7.876zm21.068-11.643c0 .343.102.651.274.857.582.754 3.013 1.3 4.349 1.575l4.964 1.06c1.062.206 2.089.447 3.117.857 3.218 1.199 4.247 3.596 4.247 5.787a7.52 7.52 0 0 1-1.267 4.143c-2.021 3.048-6.096 4.384-12.602 4.384-2.431 0-7.259-.205-10.1-2.739-2.089-1.85-2.398-4.075-2.534-5.17l8.526-.241c.308 1.576 1.917 2.774 5.342 2.774.891 0 2.157-.103 3.013-.581.582-.343 1.199-1.029 1.199-1.85 0-1.131-.924-1.611-1.609-1.85-1.062-.342-6.506-1.302-7.706-1.576a25.5 25.5 0 0 1-2.772-.754c-.924-.342-4.795-1.713-4.795-6.13 0-1.816.754-3.493 1.952-4.725 2.705-2.807 7.568-3.081 10.238-3.081 2.945 0 5.857.41 7.362.923 4.52 1.439 5.103 4.83 5.343 6.131l-8.492.48c-.206-.789-.617-2.227-4.247-2.227-1.131 0-3.802.172-3.802 1.953zm19.765 11.643h7.876v6.3h-7.876zm39.316-2.979h-5.615l2.773-8.184zm-18.217 9.279h9.486l1.301-3.939h9.246l1.301 3.939h9.418l-10.48-24.175H469.4zm42.625-24.175v24.175h-8.664v-24.175zm15.098 5.479h7.192c.65 0 1.54.067 2.225.686.446.411.617.992.617 1.541 0 2.157-2.192 2.191-3.528 2.191h-6.506zm-8.663 18.696h8.663v-8.8h4.623l4.964 8.8h9.589l-6.061-9.657c1.027-.274 2.671-.617 4.04-2.26.994-1.198 1.542-2.878 1.542-4.589 0-2.432-1.096-4.793-2.843-6.13-2.02-1.473-4.623-1.508-6.745-1.541h-17.773zm40.761-24.175h23.695v5.444h-15.032v4.623h13.799v5.41h-13.799v8.698h-8.664v-24.175zm43.098 4.485c5.923.069 7.089 4.931 7.089 7.568 0 2.43-.924 5.582-3.596 6.917-1.061.548-2.294.686-3.493.686-5.238 0-7.26-3.869-7.26-7.602 0-3.322 1.816-7.637 7.26-7.569zm-.514-5.376c-4.281.069-10.033.857-13.423 5.652-1.543 2.189-2.228 4.862-2.228 7.567 0 2.773.651 5.102 2.294 7.293 1.781 2.432 5.24 5.41 13.663 5.41 4.382 0 8.286-.614 11.574-3.218 1.163-.891 2.122-1.985 2.877-3.254 1.198-1.986 1.747-4.313 1.747-6.573 0-4.143-1.952-9.213-7.501-11.471-2.771-1.133-5.992-1.439-9.004-1.406zm29.998 6.37h7.192c.65 0 1.541.067 2.225.686.447.411.617.992.617 1.541 0 2.157-2.192 2.191-3.527 2.191h-6.507zm-8.664 18.696h8.664v-8.8h4.623l4.965 8.8h9.588l-6.062-9.657c1.028-.274 2.672-.617 4.041-2.26.994-1.198 1.541-2.878 1.541-4.589 0-2.432-1.095-4.793-2.842-6.13-2.02-1.473-4.622-1.508-6.744-1.541h-17.774zm40.442-12.087c0 3.664 2.156 7.466 7.122 7.466 1.882 0 3.628-.583 4.897-1.61 1.129-.926 1.472-1.711 1.746-2.433l8.251.856c-.274.891-.581 1.781-1.37 3.013-2.842 4.384-8.39 5.617-13.697 5.617-2.363 0-4.692-.207-6.917-.891-4.966-1.542-9.074-5.342-9.074-11.984 0-4.692 2.464-13.15 16.23-13.15 11.744 0 13.596 5.342 14.382 7.636l-8.012 1.438c-.341-.686-.754-1.611-2.021-2.432-1.302-.822-2.911-1.097-4.143-1.097-3.901 0-7.393 2.431-7.393 7.569zm51.28-12.088v5.444h-16.814v3.938h15.547v5.479h-15.582v3.835h17.189v5.479h-25.818v-24.175z" clip-path="none"/></g></svg>